<?xml version="1.0" encoding="iso-8859-1"?>
<!-- Generator: Adobe Illustrator 19.0.0, SVG Export Plug-In . SVG Version: 6.00 Build 0)  -->
<svg version="1.1" id="Capa_1" xmlns="http://www.w3.org/2000/svg" xmlns:xlink="http://www.w3.org/1999/xlink" x="0px" y="0px"
	 viewBox="0 0 512 512" style="enable-background:new 0 0 512 512;" xml:space="preserve">
<path style="opacity:0.5;fill:#A6E2E3;enable-background:new    ;" d="M387.174,299.597l0.081,0.035
	c-5.046,14.125-13.219,27.367-24.53,38.679c-40.876,40.876-107.143,40.876-148.02,0c-11.312-11.312-19.496-24.577-24.542-38.714
	H387.174z"/>
<g>
	<path style="fill:#E2E0E0;" d="M504.92,446.326c9.44,9.44,9.44,24.74,0,34.18c-4.72,4.72-10.905,7.08-17.09,7.08
		s-12.37-2.36-17.09-7.08l-97.773-97.761l-0.012-0.012c6.499-4.615,12.695-9.847,18.52-15.672
		c5.825-5.813,11.045-12.009,15.66-18.497h0.012L504.92,446.326z"/>
	<path style="fill:#E2E0E0;" d="M407.626,383.335c4.72-4.72,10.905-7.08,17.09-7.08s12.37,2.36,17.09,7.08l0.223,0.107
		l-34.882-34.877h-0.012c-4.615,6.487-9.835,12.684-15.66,18.497c-5.825,5.825-12.021,11.056-18.52,15.672l0.012,0.012
		l33.565,33.561C398.227,406.811,398.574,392.387,407.626,383.335z"/>
</g>
<rect y="24.414" style="fill:#A6E2E3;" width="490.609" height="216.24"/>
<path style="opacity:0.1;enable-background:new    ;" d="M186.473,240.654h278.566c-6.653-22.427-18.812-43.561-36.522-61.27
	c-56.757-56.757-148.764-56.757-205.521,0C205.286,197.093,193.127,218.227,186.473,240.654z"/>
<path style="fill:#A8A6A6;" d="M432.108,240.654c6.08,37.075-2.244,76.056-24.972,107.911c-4.615,6.487-9.835,12.684-15.66,18.497
	c-5.825,5.825-12.021,11.056-18.52,15.672c-56.757,40.493-136.068,35.261-187.001-15.672
	c-34.412-34.412-47.956-81.787-40.632-126.407c4.743-28.971,18.287-56.757,40.632-79.102c56.757-56.757,148.764-56.757,205.521,0
	C413.82,183.897,427.364,211.682,432.108,240.654z M387.255,299.632c13.207-36.912,5.034-79.765-24.53-109.329
	c-40.876-40.876-107.143-40.876-148.02,0c-29.553,29.553-37.737,72.382-24.542,109.294c5.046,14.137,13.23,27.402,24.542,38.714
	c40.876,40.876,107.143,40.876,148.02,0C374.037,326.999,382.21,313.757,387.255,299.632z"/>
<path id="SVGCleanerId_0" style="fill:#A6E2E3;" d="M362.725,190.303c29.564,29.564,37.737,72.417,24.53,109.329l-0.081-0.035
	H190.163c-13.195-36.912-5.011-79.741,24.542-109.294C255.581,149.426,321.849,149.426,362.725,190.303z"/>
<g>
	<path id="SVGCleanerId_0_1_" style="fill:#A6E2E3;" d="M362.725,190.303c29.564,29.564,37.737,72.417,24.53,109.329l-0.081-0.035
		H190.163c-13.195-36.912-5.011-79.741,24.542-109.294C255.581,149.426,321.849,149.426,362.725,190.303z"/>
</g>
<g>
	<path style="fill:#FFA638;" d="M268.116,258.298c-2.232,0-4.463-0.851-6.166-2.554c-3.405-3.405-3.405-8.926,0-12.331
		l41.103-41.103c3.406-3.406,8.926-3.405,12.331,0s3.405,8.926,0,12.331l-41.103,41.103
		C272.58,257.447,270.347,258.298,268.116,258.298z"/>
	<path style="fill:#FFA638;" d="M309.219,258.298c-2.231,0-4.463-0.851-6.166-2.554l-41.103-41.103
		c-3.405-3.405-3.405-8.926,0-12.331c3.406-3.405,8.926-3.405,12.331,0l41.103,41.103c3.405,3.405,3.405,8.926,0,12.331
		C313.683,257.447,311.45,258.298,309.219,258.298z"/>
</g>
<path style="fill:#4D4D4D;" d="M428.986,86.611H61.611c-4.817,0-8.719-3.904-8.719-8.719c0-4.815,3.903-8.719,8.719-8.719h367.375
	c4.817,0,8.719,3.904,8.719,8.719C437.705,82.707,433.803,86.611,428.986,86.611z"/>
<g>
</g>
<g>
</g>
<g>
</g>
<g>
</g>
<g>
</g>
<g>
</g>
<g>
</g>
<g>
</g>
<g>
</g>
<g>
</g>
<g>
</g>
<g>
</g>
<g>
</g>
<g>
</g>
<g>
</g>
</svg>
